<mxfile host="app.diagrams.net" agent="Mozilla/5.0 (Macintosh; Intel Mac OS X 10_15_7) AppleWebKit/537.36 (KHTML, like Gecko) Chrome/140.0.0.0 Safari/537.36" version="28.2.5">
  <diagram name="第 1 页" id="A-eHHzK-GCT5FrcxM3si">
    <mxGraphModel dx="3253" dy="3379" grid="1" gridSize="10" guides="1" tooltips="1" connect="1" arrows="1" fold="1" page="1" pageScale="1" pageWidth="827" pageHeight="1169" math="0" shadow="0">
      <root>
        <mxCell id="0" />
        <mxCell id="1" parent="0" />
        <mxCell id="sV2P0FJGSlzIeBvPtXu7-1" value="" style="rounded=0;whiteSpace=wrap;html=1;strokeColor=none;fillColor=#F5F5F5;fontSize=37;" parent="1" vertex="1">
          <mxGeometry x="30" y="670" width="2820" height="600" as="geometry" />
        </mxCell>
        <mxCell id="sV2P0FJGSlzIeBvPtXu7-2" value="" style="rounded=0;whiteSpace=wrap;html=1;dashed=1;dashPattern=8 8;fillColor=#F8EED1;sketch=1;curveFitting=1;jiggle=2;fontSize=37;" parent="1" vertex="1">
          <mxGeometry x="1610" y="710" width="1190" height="410" as="geometry" />
        </mxCell>
        <mxCell id="sV2P0FJGSlzIeBvPtXu7-4" value="" style="rounded=0;whiteSpace=wrap;html=1;strokeColor=none;fillColor=#F5F5F5;fontSize=37;" parent="1" vertex="1">
          <mxGeometry x="30" y="70" width="2820" height="230" as="geometry" />
        </mxCell>
        <mxCell id="sV2P0FJGSlzIeBvPtXu7-5" value="" style="rounded=0;whiteSpace=wrap;html=1;fillColor=#D8D9D9;fontSize=37;" parent="1" vertex="1">
          <mxGeometry x="250" y="115" width="2550" height="110" as="geometry" />
        </mxCell>
        <mxCell id="sV2P0FJGSlzIeBvPtXu7-6" value="" style="rounded=0;whiteSpace=wrap;html=1;strokeColor=none;fillColor=#F5F5F5;fontSize=37;" parent="1" vertex="1">
          <mxGeometry x="30" y="320" width="2820" height="330" as="geometry" />
        </mxCell>
        <mxCell id="sV2P0FJGSlzIeBvPtXu7-7" value="" style="rounded=0;whiteSpace=wrap;html=1;strokeColor=none;fillColor=#F5F5F5;fontSize=37;" parent="1" vertex="1">
          <mxGeometry x="30" y="-960" width="2830" height="1000" as="geometry" />
        </mxCell>
        <mxCell id="sV2P0FJGSlzIeBvPtXu7-8" value="&lt;b&gt;&lt;font&gt;资源服务&lt;/font&gt;&lt;/b&gt;" style="text;html=1;align=center;verticalAlign=middle;whiteSpace=wrap;rounded=0;fontSize=37;" parent="1" vertex="1">
          <mxGeometry x="150" y="740" width="40" height="330" as="geometry" />
        </mxCell>
        <mxCell id="sV2P0FJGSlzIeBvPtXu7-9" value="&lt;span&gt;&lt;b&gt;培训服务&lt;/b&gt;&lt;/span&gt;" style="text;html=1;align=center;verticalAlign=middle;whiteSpace=wrap;rounded=0;fontSize=37;" parent="1" vertex="1">
          <mxGeometry x="150" y="-495" width="40" height="140" as="geometry" />
        </mxCell>
        <mxCell id="sV2P0FJGSlzIeBvPtXu7-10" value="&lt;font&gt;&lt;b&gt;系统架构图&lt;/b&gt;&lt;/font&gt;" style="text;html=1;align=center;verticalAlign=middle;whiteSpace=wrap;rounded=0;fontSize=37;" parent="1" vertex="1">
          <mxGeometry x="1365" y="-1010" width="465" height="30" as="geometry" />
        </mxCell>
        <mxCell id="sV2P0FJGSlzIeBvPtXu7-11" value="&lt;font&gt;&lt;b&gt;客服仿真训练平台&lt;/b&gt;&lt;/font&gt;" style="rounded=1;whiteSpace=wrap;html=1;fillColor=#DBE9FA;strokeColor=#838A93;strokeWidth=3;shadow=0;sketch=1;curveFitting=1;jiggle=2;fontSize=37;" parent="1" vertex="1">
          <mxGeometry x="900" y="-930" width="710" height="60" as="geometry" />
        </mxCell>
        <mxCell id="sV2P0FJGSlzIeBvPtXu7-12" value="&lt;b&gt;&lt;font&gt;讲师配置平台&lt;/font&gt;&lt;/b&gt;" style="rounded=0;whiteSpace=wrap;html=1;strokeColor=#838A93;fillColor=#F3DFEC;strokeWidth=3;fontSize=37;" parent="1" vertex="1">
          <mxGeometry x="250" y="350" width="2550" height="60" as="geometry" />
        </mxCell>
        <mxCell id="sV2P0FJGSlzIeBvPtXu7-13" value="" style="rounded=0;whiteSpace=wrap;html=1;fillColor=#dae8fc;strokeColor=#6c8ebf;strokeWidth=3;fontSize=37;" parent="1" vertex="1">
          <mxGeometry x="270" y="-840" width="610" height="300" as="geometry" />
        </mxCell>
        <mxCell id="sV2P0FJGSlzIeBvPtXu7-14" value="&lt;font&gt;&lt;b&gt;课程&lt;/b&gt;&lt;/font&gt;" style="text;html=1;align=center;verticalAlign=middle;whiteSpace=wrap;rounded=0;fontSize=37;" parent="1" vertex="1">
          <mxGeometry x="479.38" y="-821.87" width="161.25" height="30" as="geometry" />
        </mxCell>
        <mxCell id="sV2P0FJGSlzIeBvPtXu7-15" value="&lt;span&gt;&lt;b&gt;调度服务&lt;/b&gt;&lt;/span&gt;" style="text;html=1;align=center;verticalAlign=middle;whiteSpace=wrap;rounded=0;fontSize=37;" parent="1" vertex="1">
          <mxGeometry x="150" y="100" width="40" height="140" as="geometry" />
        </mxCell>
        <mxCell id="sV2P0FJGSlzIeBvPtXu7-16" value="&lt;b&gt;&lt;font&gt;配置服务&lt;/font&gt;&lt;/b&gt;" style="text;html=1;align=center;verticalAlign=middle;whiteSpace=wrap;rounded=0;fontSize=37;" parent="1" vertex="1">
          <mxGeometry x="150" y="415" width="40" height="140" as="geometry" />
        </mxCell>
        <mxCell id="sV2P0FJGSlzIeBvPtXu7-18" value="&lt;font&gt;&lt;b&gt;内容包&lt;/b&gt;&lt;/font&gt;" style="text;html=1;align=center;verticalAlign=middle;whiteSpace=wrap;rounded=0;fontSize=37;" parent="1" vertex="1">
          <mxGeometry x="2111.25" y="450" width="127.5" height="30" as="geometry" />
        </mxCell>
        <mxCell id="sV2P0FJGSlzIeBvPtXu7-19" value="" style="rounded=0;whiteSpace=wrap;html=1;dashed=1;dashPattern=8 8;fillColor=#F3DFEC;fontSize=37;" parent="1" vertex="1">
          <mxGeometry x="250" y="430" width="2550" height="190" as="geometry" />
        </mxCell>
        <mxCell id="sV2P0FJGSlzIeBvPtXu7-22" value="" style="rounded=0;whiteSpace=wrap;html=1;fillColor=#DBE9FA;strokeColor=#838A93;strokeWidth=3;fontSize=37;" parent="1" vertex="1">
          <mxGeometry x="901.25" y="-840" width="668.75" height="830" as="geometry" />
        </mxCell>
        <mxCell id="sV2P0FJGSlzIeBvPtXu7-23" value="&lt;b&gt;&lt;font&gt;案例训练&lt;/font&gt;&lt;/b&gt;" style="text;html=1;align=center;verticalAlign=middle;whiteSpace=wrap;rounded=0;fontSize=37;" parent="1" vertex="1">
          <mxGeometry x="1130.93" y="-821.87" width="199.07" height="38.13" as="geometry" />
        </mxCell>
        <mxCell id="sV2P0FJGSlzIeBvPtXu7-24" value="&lt;font&gt;&lt;b&gt;客服学习平台&lt;/b&gt;&lt;/font&gt;" style="rounded=1;whiteSpace=wrap;html=1;fillColor=#dae8fc;strokeColor=#6c8ebf;strokeWidth=3;sketch=1;curveFitting=1;jiggle=2;shadow=1;fontSize=37;" parent="1" vertex="1">
          <mxGeometry x="270" y="-930" width="600" height="60" as="geometry" />
        </mxCell>
        <mxCell id="sV2P0FJGSlzIeBvPtXu7-25" value="&lt;span&gt;&lt;b&gt;认证员工&lt;/b&gt;&lt;/span&gt;" style="rounded=0;whiteSpace=wrap;html=1;strokeColor=#838A93;fillColor=none;strokeWidth=3;fontSize=37;" parent="1" vertex="1">
          <mxGeometry x="2150" y="490" width="260" height="80" as="geometry" />
        </mxCell>
        <mxCell id="sV2P0FJGSlzIeBvPtXu7-26" value="&lt;b&gt;&lt;font&gt;数据统计&lt;/font&gt;&lt;/b&gt;" style="rounded=0;whiteSpace=wrap;html=1;strokeColor=#838A93;fillColor=none;strokeWidth=3;fontSize=37;" parent="1" vertex="1">
          <mxGeometry x="670" y="490" width="260" height="80" as="geometry" />
        </mxCell>
        <mxCell id="sV2P0FJGSlzIeBvPtXu7-27" value="&lt;b&gt;&lt;font&gt;人员指派&lt;/font&gt;&lt;/b&gt;" style="rounded=0;whiteSpace=wrap;html=1;strokeColor=#838A93;fillColor=none;strokeWidth=3;fontSize=37;" parent="1" vertex="1">
          <mxGeometry x="1830" y="490" width="260" height="80" as="geometry" />
        </mxCell>
        <mxCell id="sV2P0FJGSlzIeBvPtXu7-28" value="&lt;b&gt;&lt;font&gt;上传人员名单&lt;/font&gt;&lt;/b&gt;" style="rounded=0;whiteSpace=wrap;html=1;strokeColor=#838A93;fillColor=none;strokeWidth=3;fontSize=37;" parent="1" vertex="1">
          <mxGeometry x="1030" y="490" width="260" height="80" as="geometry" />
        </mxCell>
        <mxCell id="sV2P0FJGSlzIeBvPtXu7-29" value="&lt;b&gt;&lt;font&gt;配置/更新学习任务&lt;/font&gt;&lt;/b&gt;" style="rounded=0;whiteSpace=wrap;html=1;strokeColor=#838A93;fillColor=none;strokeWidth=3;fontSize=37;" parent="1" vertex="1">
          <mxGeometry x="1350" y="462" width="390" height="122.5" as="geometry" />
        </mxCell>
        <mxCell id="sV2P0FJGSlzIeBvPtXu7-44" value="" style="group;sketch=1;curveFitting=1;jiggle=2;fontSize=37;" parent="1" vertex="1" connectable="0">
          <mxGeometry x="1140" y="712.5" width="440" height="405" as="geometry" />
        </mxCell>
        <mxCell id="sV2P0FJGSlzIeBvPtXu7-45" value="" style="rounded=0;whiteSpace=wrap;html=1;dashed=1;dashPattern=8 8;fillColor=#F8EED1;sketch=1;curveFitting=1;jiggle=2;fontSize=37;" parent="sV2P0FJGSlzIeBvPtXu7-44" vertex="1">
          <mxGeometry width="440.00000000000006" height="405" as="geometry" />
        </mxCell>
        <mxCell id="sV2P0FJGSlzIeBvPtXu7-46" value="&lt;font&gt;&lt;b&gt;考试&lt;/b&gt;&lt;/font&gt;" style="text;html=1;align=center;verticalAlign=middle;whiteSpace=wrap;rounded=0;fontSize=37;" parent="sV2P0FJGSlzIeBvPtXu7-44" vertex="1">
          <mxGeometry x="183.55" y="19.29" width="126.45" height="28.93" as="geometry" />
        </mxCell>
        <mxCell id="sV2P0FJGSlzIeBvPtXu7-47" value="&lt;span&gt;&lt;b&gt;题型配置&lt;/b&gt;&lt;/span&gt;" style="rounded=0;whiteSpace=wrap;html=1;strokeColor=#838A93;fillColor=none;strokeWidth=3;fontSize=37;" parent="sV2P0FJGSlzIeBvPtXu7-44" vertex="1">
          <mxGeometry x="240" y="69.68" width="170" height="72.77" as="geometry" />
        </mxCell>
        <mxCell id="sV2P0FJGSlzIeBvPtXu7-48" value="&lt;span&gt;&lt;b&gt;题库管理&lt;/b&gt;&lt;/span&gt;" style="rounded=0;whiteSpace=wrap;html=1;strokeColor=#838A93;fillColor=none;strokeWidth=3;fontSize=37;" parent="sV2P0FJGSlzIeBvPtXu7-44" vertex="1">
          <mxGeometry x="30" y="67.5" width="167.84" height="77.14" as="geometry" />
        </mxCell>
        <mxCell id="sV2P0FJGSlzIeBvPtXu7-228" value="&lt;span&gt;&lt;b&gt;试卷管理&lt;/b&gt;&lt;/span&gt;" style="rounded=0;whiteSpace=wrap;html=1;strokeColor=#838A93;fillColor=none;strokeWidth=3;fontSize=37;" parent="sV2P0FJGSlzIeBvPtXu7-44" vertex="1">
          <mxGeometry x="30" y="197.5" width="173.32" height="72.77" as="geometry" />
        </mxCell>
        <mxCell id="sV2P0FJGSlzIeBvPtXu7-229" value="&lt;span&gt;&lt;b&gt;数据统计&lt;/b&gt;&lt;/span&gt;" style="rounded=0;whiteSpace=wrap;html=1;strokeColor=#838A93;fillColor=none;strokeWidth=3;fontSize=37;" parent="sV2P0FJGSlzIeBvPtXu7-44" vertex="1">
          <mxGeometry x="240" y="197.5" width="180" height="72.77" as="geometry" />
        </mxCell>
        <mxCell id="sV2P0FJGSlzIeBvPtXu7-56" value="" style="group;sketch=1;curveFitting=1;jiggle=2;shadow=0;fontSize=37;" parent="1" vertex="1" connectable="0">
          <mxGeometry x="250" y="710" width="390" height="410" as="geometry" />
        </mxCell>
        <mxCell id="sV2P0FJGSlzIeBvPtXu7-57" value="" style="rounded=0;whiteSpace=wrap;html=1;dashed=1;fillColor=#F8EED1;strokeWidth=2;sketch=1;curveFitting=1;jiggle=2;fontSize=37;" parent="sV2P0FJGSlzIeBvPtXu7-56" vertex="1">
          <mxGeometry width="390" height="410" as="geometry" />
        </mxCell>
        <mxCell id="sV2P0FJGSlzIeBvPtXu7-58" value="&lt;font&gt;&lt;b&gt;课程&lt;/b&gt;&lt;/font&gt;" style="text;html=1;align=center;verticalAlign=middle;whiteSpace=wrap;rounded=0;fontSize=37;" parent="sV2P0FJGSlzIeBvPtXu7-56" vertex="1">
          <mxGeometry x="140" y="19.52" width="80" height="29.29" as="geometry" />
        </mxCell>
        <mxCell id="sV2P0FJGSlzIeBvPtXu7-214" value="&lt;b&gt;&lt;font&gt;数据统计&lt;/font&gt;&lt;/b&gt;" style="rounded=0;whiteSpace=wrap;html=1;strokeColor=#838A93;fillColor=none;strokeWidth=3;fontSize=37;" parent="sV2P0FJGSlzIeBvPtXu7-56" vertex="1">
          <mxGeometry x="101.11" y="73.59" width="198.89" height="73.59" as="geometry" />
        </mxCell>
        <mxCell id="sV2P0FJGSlzIeBvPtXu7-215" value="&lt;b&gt;&lt;font&gt;课程编辑&lt;/font&gt;&lt;/b&gt;" style="rounded=0;whiteSpace=wrap;html=1;strokeColor=#838A93;fillColor=none;strokeWidth=3;fontSize=37;" parent="sV2P0FJGSlzIeBvPtXu7-56" vertex="1">
          <mxGeometry x="101.11" y="178.72" width="188.89" height="73.59" as="geometry" />
        </mxCell>
        <mxCell id="sV2P0FJGSlzIeBvPtXu7-216" value="&lt;span&gt;&lt;b&gt;课程审批&lt;/b&gt;&lt;/span&gt;" style="rounded=0;whiteSpace=wrap;html=1;strokeColor=#838A93;fillColor=none;strokeWidth=3;fontSize=37;" parent="sV2P0FJGSlzIeBvPtXu7-56" vertex="1">
          <mxGeometry x="101.11" y="283.85" width="188.89" height="73.59" as="geometry" />
        </mxCell>
        <mxCell id="sV2P0FJGSlzIeBvPtXu7-82" value="&lt;b&gt;&lt;font&gt;学习任务调度创建&lt;/font&gt;&lt;/b&gt;" style="rounded=0;whiteSpace=wrap;html=1;strokeColor=#838A93;fillColor=none;strokeWidth=3;fontSize=37;" parent="1" vertex="1">
          <mxGeometry x="420" y="130" width="260" height="80" as="geometry" />
        </mxCell>
        <mxCell id="sV2P0FJGSlzIeBvPtXu7-83" value="&lt;b&gt;&lt;font&gt;学习状态同步&lt;/font&gt;&lt;/b&gt;" style="rounded=0;whiteSpace=wrap;html=1;strokeColor=#838A93;fillColor=none;strokeWidth=3;fontSize=37;" parent="1" vertex="1">
          <mxGeometry x="1395" y="130" width="260" height="80" as="geometry" />
        </mxCell>
        <mxCell id="sV2P0FJGSlzIeBvPtXu7-84" value="&lt;b&gt;&lt;font&gt;学习进程同步&lt;/font&gt;&lt;/b&gt;" style="rounded=0;whiteSpace=wrap;html=1;strokeColor=#838A93;fillColor=none;strokeWidth=3;fontSize=37;" parent="1" vertex="1">
          <mxGeometry x="2480" y="130" width="260" height="80" as="geometry" />
        </mxCell>
        <mxCell id="sV2P0FJGSlzIeBvPtXu7-85" value="&lt;font color=&quot;#7a7a7a&quot;&gt;&lt;b&gt;mq&lt;/b&gt;&lt;/font&gt;" style="text;html=1;align=center;verticalAlign=middle;whiteSpace=wrap;rounded=0;fontSize=37;" parent="1" vertex="1">
          <mxGeometry x="1540" y="260" width="60" height="30" as="geometry" />
        </mxCell>
        <mxCell id="sV2P0FJGSlzIeBvPtXu7-86" value="" style="rounded=0;whiteSpace=wrap;html=1;fillColor=#e1d5e7;strokeColor=#9673a6;strokeWidth=3;shadow=0;glass=0;sketch=1;curveFitting=1;jiggle=2;fontSize=37;" parent="1" vertex="1">
          <mxGeometry x="2160" y="-840" width="650" height="840" as="geometry" />
        </mxCell>
        <mxCell id="sV2P0FJGSlzIeBvPtXu7-88" value="" style="rounded=0;whiteSpace=wrap;html=1;fillColor=#dae8fc;strokeColor=#6c8ebf;strokeWidth=3;fontSize=37;" parent="1" vertex="1">
          <mxGeometry x="270" y="-490" width="600" height="480" as="geometry" />
        </mxCell>
        <mxCell id="sV2P0FJGSlzIeBvPtXu7-89" value="&lt;font&gt;&lt;b&gt;考试&lt;/b&gt;&lt;/font&gt;" style="text;html=1;align=center;verticalAlign=middle;whiteSpace=wrap;rounded=0;fontSize=37;" parent="1" vertex="1">
          <mxGeometry x="498.75" y="-390" width="122.5" height="30" as="geometry" />
        </mxCell>
        <mxCell id="sV2P0FJGSlzIeBvPtXu7-91" value="&lt;font color=&quot;#7a7a7a&quot;&gt;&lt;b&gt;mq&lt;/b&gt;&lt;/font&gt;" style="text;html=1;align=center;verticalAlign=middle;whiteSpace=wrap;rounded=0;fontSize=37;" parent="1" vertex="1">
          <mxGeometry x="1540" y="50" width="60" height="30" as="geometry" />
        </mxCell>
        <mxCell id="sV2P0FJGSlzIeBvPtXu7-92" value="" style="endArrow=classic;startArrow=classic;html=1;rounded=0;exitX=0.5;exitY=0;exitDx=0;exitDy=0;strokeWidth=6;dashed=1;strokeColor=#7A7A7A;entryX=0.533;entryY=0.996;entryDx=0;entryDy=0;entryPerimeter=0;fontSize=37;" parent="1" source="sV2P0FJGSlzIeBvPtXu7-5" target="sV2P0FJGSlzIeBvPtXu7-7" edge="1">
          <mxGeometry width="50" height="50" relative="1" as="geometry">
            <mxPoint x="1790" y="180" as="sourcePoint" />
            <mxPoint x="1525" y="50" as="targetPoint" />
          </mxGeometry>
        </mxCell>
        <mxCell id="sV2P0FJGSlzIeBvPtXu7-93" value="" style="endArrow=classic;startArrow=classic;html=1;rounded=0;entryX=0.5;entryY=1;entryDx=0;entryDy=0;strokeWidth=6;strokeColor=#7A7A7A;dashed=1;fontSize=37;" parent="1" target="sV2P0FJGSlzIeBvPtXu7-5" edge="1">
          <mxGeometry width="50" height="50" relative="1" as="geometry">
            <mxPoint x="1525" y="320" as="sourcePoint" />
            <mxPoint x="1840" y="130" as="targetPoint" />
          </mxGeometry>
        </mxCell>
        <mxCell id="sV2P0FJGSlzIeBvPtXu7-94" value="&lt;b&gt;外呼服务&lt;/b&gt;&lt;div&gt;&lt;span&gt;&lt;b&gt;&lt;br&gt;&lt;/b&gt;&lt;/span&gt;&lt;div&gt;&lt;span&gt;&lt;b&gt;训练交互&lt;/b&gt;&lt;/span&gt;&lt;/div&gt;&lt;/div&gt;" style="rounded=0;whiteSpace=wrap;html=1;fillColor=#DBE9FA;strokeColor=#838A93;strokeWidth=3;fontSize=37;" parent="1" vertex="1">
          <mxGeometry x="1750" y="-732.86" width="190" height="513" as="geometry" />
        </mxCell>
        <mxCell id="sV2P0FJGSlzIeBvPtXu7-95" value="" style="rounded=0;whiteSpace=wrap;html=1;strokeColor=#838A93;strokeWidth=3;fillColor=none;fontSize=37;" parent="1" vertex="1">
          <mxGeometry x="960" y="-760" width="531.25" height="670" as="geometry" />
        </mxCell>
        <mxCell id="sV2P0FJGSlzIeBvPtXu7-96" value="&lt;font&gt;&lt;b&gt;提示信息&lt;/b&gt;&lt;/font&gt;" style="rounded=1;whiteSpace=wrap;html=1;strokeColor=#838A93;strokeWidth=3;fillColor=none;fontSize=37;" parent="1" vertex="1">
          <mxGeometry x="1000" y="-540.5" width="202.81" height="120.5" as="geometry" />
        </mxCell>
        <mxCell id="sV2P0FJGSlzIeBvPtXu7-97" value="&lt;font&gt;&lt;b&gt;实时辅导&lt;/b&gt;&lt;/font&gt;" style="rounded=1;whiteSpace=wrap;html=1;strokeColor=#838A93;strokeWidth=3;fillColor=none;fontSize=37;" parent="1" vertex="1">
          <mxGeometry x="1000" y="-380" width="205" height="107.5" as="geometry" />
        </mxCell>
        <mxCell id="sV2P0FJGSlzIeBvPtXu7-98" value="&lt;font&gt;&lt;b&gt;跟读练习&lt;/b&gt;&lt;/font&gt;" style="rounded=1;whiteSpace=wrap;html=1;strokeColor=#838A93;strokeWidth=3;fillColor=none;fontSize=37;" parent="1" vertex="1">
          <mxGeometry x="1260" y="-535.5" width="210" height="115.5" as="geometry" />
        </mxCell>
        <mxCell id="sV2P0FJGSlzIeBvPtXu7-99" value="&lt;span&gt;&lt;b&gt;打判结果&lt;/b&gt;&lt;/span&gt;" style="rounded=1;whiteSpace=wrap;html=1;strokeColor=#838A93;strokeWidth=3;fillColor=none;fontSize=37;" parent="1" vertex="1">
          <mxGeometry x="1262.88" y="-380" width="205" height="107.5" as="geometry" />
        </mxCell>
        <mxCell id="sV2P0FJGSlzIeBvPtXu7-100" value="&lt;font&gt;&lt;b&gt;订单信息&lt;/b&gt;&lt;/font&gt;" style="rounded=1;whiteSpace=wrap;html=1;strokeColor=#838A93;strokeWidth=3;fillColor=none;fontSize=37;" parent="1" vertex="1">
          <mxGeometry x="994.38" y="-241.55" width="208.43" height="113.43" as="geometry" />
        </mxCell>
        <mxCell id="sV2P0FJGSlzIeBvPtXu7-101" value="&lt;span&gt;&lt;b&gt;训练成绩&lt;/b&gt;&lt;/span&gt;" style="rounded=1;whiteSpace=wrap;html=1;strokeColor=#838A93;strokeWidth=3;fillColor=none;fontSize=37;" parent="1" vertex="1">
          <mxGeometry x="1263.5" y="-243.43" width="200" height="110" as="geometry" />
        </mxCell>
        <mxCell id="sV2P0FJGSlzIeBvPtXu7-102" value="&lt;font&gt;&lt;b&gt;讲师配置自定义交互&lt;/b&gt;&lt;/font&gt;" style="text;html=1;align=center;verticalAlign=middle;whiteSpace=wrap;rounded=0;fontSize=37;" parent="1" vertex="1">
          <mxGeometry x="1055.93" y="-740" width="339.07" height="30" as="geometry" />
        </mxCell>
        <mxCell id="sV2P0FJGSlzIeBvPtXu7-105" value="&lt;font&gt;&lt;b&gt;语音中控服务&lt;/b&gt;&lt;/font&gt;" style="rounded=0;whiteSpace=wrap;html=1;fillColor=#e1d5e7;strokeColor=#9673a6;strokeWidth=3;sketch=1;curveFitting=1;jiggle=2;fontSize=37;" parent="1" vertex="1">
          <mxGeometry x="2180" y="-241.54999999999995" width="610" height="40" as="geometry" />
        </mxCell>
        <mxCell id="sV2P0FJGSlzIeBvPtXu7-120" value="&lt;span&gt;&lt;b&gt;大模型打判服务&lt;/b&gt;&lt;/span&gt;" style="rounded=0;whiteSpace=wrap;html=1;strokeColor=#838A93;strokeWidth=3;fillColor=none;fontSize=37;" parent="1" vertex="1">
          <mxGeometry x="2294" y="-150" width="370" height="76.57" as="geometry" />
        </mxCell>
        <mxCell id="sV2P0FJGSlzIeBvPtXu7-123" value="&lt;font&gt;&lt;b&gt;语音交互管道&lt;/b&gt;&lt;/font&gt;" style="rounded=0;whiteSpace=wrap;html=1;fillColor=#e1d5e7;strokeColor=#9673a6;strokeWidth=3;sketch=1;curveFitting=1;jiggle=2;fontSize=37;" parent="1" vertex="1">
          <mxGeometry x="2180" y="-445" width="610" height="135" as="geometry" />
        </mxCell>
        <mxCell id="sV2P0FJGSlzIeBvPtXu7-135" value="&lt;span&gt;&lt;b&gt;协议签署&lt;/b&gt;&lt;/span&gt;" style="rounded=1;whiteSpace=wrap;html=1;strokeColor=#838A93;strokeWidth=3;fillColor=none;fontSize=37;" parent="1" vertex="1">
          <mxGeometry x="299.38" y="-753.2099999999999" width="180" height="126.41" as="geometry" />
        </mxCell>
        <mxCell id="sV2P0FJGSlzIeBvPtXu7-136" value="&lt;font&gt;&lt;b&gt;学习视频&lt;/b&gt;&lt;/font&gt;" style="rounded=1;whiteSpace=wrap;html=1;strokeColor=#838A93;strokeWidth=3;fillColor=none;fontSize=37;" parent="1" vertex="1">
          <mxGeometry x="690" y="-753.2099999999999" width="180" height="126.41" as="geometry" />
        </mxCell>
        <mxCell id="sV2P0FJGSlzIeBvPtXu7-139" value="&lt;font&gt;&lt;b&gt;学习文档&lt;/b&gt;&lt;/font&gt;" style="rounded=1;whiteSpace=wrap;html=1;strokeColor=#838A93;strokeWidth=3;fillColor=none;fontSize=37;" parent="1" vertex="1">
          <mxGeometry x="508.75" y="-753.2099999999999" width="161.25" height="126.41" as="geometry" />
        </mxCell>
        <mxCell id="sV2P0FJGSlzIeBvPtXu7-140" value="&lt;span&gt;&lt;b&gt;单选题&lt;/b&gt;&lt;/span&gt;" style="rounded=1;whiteSpace=wrap;html=1;strokeColor=#838A93;strokeWidth=3;fillColor=none;fontSize=37;" parent="1" vertex="1">
          <mxGeometry x="340" y="-318.12" width="130" height="76.57" as="geometry" />
        </mxCell>
        <mxCell id="sV2P0FJGSlzIeBvPtXu7-141" value="&lt;span&gt;&lt;b&gt;多选题&lt;/b&gt;&lt;/span&gt;" style="rounded=1;whiteSpace=wrap;html=1;strokeColor=#838A93;strokeWidth=3;fillColor=none;fontSize=37;" parent="1" vertex="1">
          <mxGeometry x="495" y="-318.12" width="130" height="76.57" as="geometry" />
        </mxCell>
        <mxCell id="sV2P0FJGSlzIeBvPtXu7-142" value="&lt;span&gt;&lt;b&gt;判断题&lt;/b&gt;&lt;/span&gt;" style="rounded=1;whiteSpace=wrap;html=1;strokeColor=#838A93;strokeWidth=3;fillColor=none;fontSize=37;" parent="1" vertex="1">
          <mxGeometry x="655" y="-318.12" width="130" height="76.57" as="geometry" />
        </mxCell>
        <mxCell id="sV2P0FJGSlzIeBvPtXu7-143" value="&lt;span&gt;&lt;b&gt;普通话考试&lt;/b&gt;&lt;/span&gt;" style="rounded=1;whiteSpace=wrap;html=1;strokeColor=#838A93;strokeWidth=3;fillColor=none;fontSize=37;" parent="1" vertex="1">
          <mxGeometry x="340" y="-210" width="130" height="76.57" as="geometry" />
        </mxCell>
        <mxCell id="sV2P0FJGSlzIeBvPtXu7-144" value="&lt;span&gt;&lt;b&gt;视频交互考试&lt;/b&gt;&lt;/span&gt;" style="rounded=1;whiteSpace=wrap;html=1;strokeColor=#838A93;strokeWidth=3;fillColor=none;fontSize=37;" parent="1" vertex="1">
          <mxGeometry x="530" y="-210" width="215" height="76.57" as="geometry" />
        </mxCell>
        <mxCell id="sV2P0FJGSlzIeBvPtXu7-145" value="" style="endArrow=classic;html=1;rounded=0;entryX=0.5;entryY=0;entryDx=0;entryDy=0;curved=1;strokeWidth=3;strokeColor=#7A7A7A;fontSize=37;" parent="1" target="sV2P0FJGSlzIeBvPtXu7-57" edge="1">
          <mxGeometry width="50" height="50" relative="1" as="geometry">
            <mxPoint x="1530" y="650" as="sourcePoint" />
            <mxPoint x="1870" y="720" as="targetPoint" />
            <Array as="points">
              <mxPoint x="880" y="660" />
            </Array>
          </mxGeometry>
        </mxCell>
        <mxCell id="sV2P0FJGSlzIeBvPtXu7-146" value="" style="endArrow=classic;html=1;rounded=0;entryX=0.5;entryY=0;entryDx=0;entryDy=0;strokeWidth=3;strokeColor=#7A7A7A;curved=1;fontSize=37;" parent="1" target="sV2P0FJGSlzIeBvPtXu7-2" edge="1">
          <mxGeometry width="50" height="50" relative="1" as="geometry">
            <mxPoint x="1530" y="650" as="sourcePoint" />
            <mxPoint x="1870" y="720" as="targetPoint" />
            <Array as="points">
              <mxPoint x="2040" y="660" />
            </Array>
          </mxGeometry>
        </mxCell>
        <mxCell id="sV2P0FJGSlzIeBvPtXu7-147" value="" style="endArrow=classic;html=1;rounded=0;entryX=0.5;entryY=0;entryDx=0;entryDy=0;strokeColor=#7A7A7A;strokeWidth=3;fontSize=37;" parent="1" target="sV2P0FJGSlzIeBvPtXu7-45" edge="1">
          <mxGeometry width="50" height="50" relative="1" as="geometry">
            <mxPoint x="1525" y="650" as="sourcePoint" />
            <mxPoint x="1870" y="720" as="targetPoint" />
          </mxGeometry>
        </mxCell>
        <mxCell id="sV2P0FJGSlzIeBvPtXu7-150" value="" style="endArrow=classic;html=1;rounded=0;exitX=1;exitY=0.5;exitDx=0;exitDy=0;entryX=0;entryY=0.5;entryDx=0;entryDy=0;strokeWidth=6;strokeColor=#7A7A7A;dashed=1;fontSize=37;" parent="1" source="sV2P0FJGSlzIeBvPtXu7-82" target="sV2P0FJGSlzIeBvPtXu7-83" edge="1">
          <mxGeometry width="50" height="50" relative="1" as="geometry">
            <mxPoint x="1220" y="440" as="sourcePoint" />
            <mxPoint x="1270" y="390" as="targetPoint" />
          </mxGeometry>
        </mxCell>
        <mxCell id="sV2P0FJGSlzIeBvPtXu7-151" value="" style="endArrow=classic;html=1;rounded=0;exitX=1;exitY=0.5;exitDx=0;exitDy=0;entryX=0;entryY=0.5;entryDx=0;entryDy=0;strokeWidth=6;strokeColor=#7A7A7A;dashed=1;fontSize=37;" parent="1" source="sV2P0FJGSlzIeBvPtXu7-83" target="sV2P0FJGSlzIeBvPtXu7-84" edge="1">
          <mxGeometry width="50" height="50" relative="1" as="geometry">
            <mxPoint x="1980" y="440" as="sourcePoint" />
            <mxPoint x="2030" y="390" as="targetPoint" />
          </mxGeometry>
        </mxCell>
        <mxCell id="sV2P0FJGSlzIeBvPtXu7-152" value="" style="endArrow=classic;html=1;rounded=0;exitX=0.5;exitY=1;exitDx=0;exitDy=0;entryX=0.5;entryY=0;entryDx=0;entryDy=0;strokeWidth=3;strokeColor=#7A7A7A;fontSize=37;" parent="1" edge="1">
          <mxGeometry width="50" height="50" relative="1" as="geometry">
            <mxPoint x="2485" y="-495.0000000000002" as="sourcePoint" />
            <mxPoint x="2485" y="-455.0000000000002" as="targetPoint" />
          </mxGeometry>
        </mxCell>
        <mxCell id="sV2P0FJGSlzIeBvPtXu7-153" value="" style="endArrow=classic;html=1;rounded=0;exitX=0.5;exitY=1;exitDx=0;exitDy=0;strokeWidth=3;strokeColor=#7A7A7A;fontSize=37;" parent="1" edge="1">
          <mxGeometry width="50" height="50" relative="1" as="geometry">
            <mxPoint x="2485" y="-295.0000000000002" as="sourcePoint" />
            <mxPoint x="2485" y="-260" as="targetPoint" />
          </mxGeometry>
        </mxCell>
        <mxCell id="sV2P0FJGSlzIeBvPtXu7-156" value="&lt;span&gt;&lt;b&gt;在线会话服务&lt;/b&gt;&lt;/span&gt;" style="rounded=0;whiteSpace=wrap;html=1;strokeColor=#838A93;strokeWidth=3;fillColor=none;fontSize=37;" parent="1" vertex="1">
          <mxGeometry x="2290" y="-800" width="390" height="110" as="geometry" />
        </mxCell>
        <mxCell id="sV2P0FJGSlzIeBvPtXu7-158" value="&lt;span&gt;&lt;b&gt;热线服务&lt;/b&gt;&lt;/span&gt;" style="rounded=0;whiteSpace=wrap;html=1;strokeColor=#838A93;strokeWidth=3;fillColor=none;fontSize=37;" parent="1" vertex="1">
          <mxGeometry x="2290" y="-644" width="390" height="114" as="geometry" />
        </mxCell>
        <mxCell id="sV2P0FJGSlzIeBvPtXu7-159" value="&lt;font color=&quot;#7a7a7a&quot;&gt;&lt;b&gt;mq&lt;/b&gt;&lt;/font&gt;" style="text;html=1;align=center;verticalAlign=middle;whiteSpace=wrap;rounded=0;fontSize=37;" parent="1" vertex="1">
          <mxGeometry x="1021.25" y="130" width="60" height="30" as="geometry" />
        </mxCell>
        <mxCell id="sV2P0FJGSlzIeBvPtXu7-160" value="&lt;font color=&quot;#7a7a7a&quot;&gt;&lt;b&gt;mq&lt;/b&gt;&lt;/font&gt;" style="text;html=1;align=center;verticalAlign=middle;whiteSpace=wrap;rounded=0;fontSize=37;" parent="1" vertex="1">
          <mxGeometry x="2060" y="130" width="60" height="30" as="geometry" />
        </mxCell>
        <mxCell id="sV2P0FJGSlzIeBvPtXu7-168" value="&lt;font&gt;&lt;b&gt;案例&lt;/b&gt;&lt;/font&gt;" style="text;html=1;align=center;verticalAlign=middle;whiteSpace=wrap;rounded=0;fontSize=37;" parent="1" vertex="1">
          <mxGeometry x="2130" y="720" width="127.5" height="30" as="geometry" />
        </mxCell>
        <mxCell id="sV2P0FJGSlzIeBvPtXu7-172" value="&lt;span&gt;&lt;b&gt;知识点&lt;/b&gt;&lt;/span&gt;" style="rounded=1;whiteSpace=wrap;html=1;strokeColor=#838A93;fillColor=none;strokeWidth=3;fontSize=37;" parent="1" vertex="1">
          <mxGeometry x="1690" y="930" width="200" height="50" as="geometry" />
        </mxCell>
        <mxCell id="sV2P0FJGSlzIeBvPtXu7-176" value="" style="rounded=0;whiteSpace=wrap;html=1;strokeColor=#838A93;fillColor=none;strokeWidth=3;fontSize=37;" parent="1" vertex="1">
          <mxGeometry x="1642" y="775" width="568" height="335" as="geometry" />
        </mxCell>
        <mxCell id="sV2P0FJGSlzIeBvPtXu7-182" value="&lt;span&gt;&lt;b&gt;会话配置&lt;/b&gt;&lt;/span&gt;" style="rounded=1;whiteSpace=wrap;html=1;strokeColor=#838A93;fillColor=none;strokeWidth=3;fontSize=37;" parent="1" vertex="1">
          <mxGeometry x="1695" y="1060" width="200" height="50" as="geometry" />
        </mxCell>
        <mxCell id="sV2P0FJGSlzIeBvPtXu7-183" value="&lt;span&gt;&lt;b&gt;在线-热线&lt;/b&gt;&lt;/span&gt;" style="rounded=1;whiteSpace=wrap;html=1;strokeColor=#838A93;fillColor=none;strokeWidth=3;fontSize=37;" parent="1" vertex="1">
          <mxGeometry x="1968" y="1010" width="200" height="50" as="geometry" />
        </mxCell>
        <mxCell id="sV2P0FJGSlzIeBvPtXu7-201" value="&lt;span&gt;&lt;b&gt;工单配置&lt;/b&gt;&lt;/span&gt;" style="rounded=1;whiteSpace=wrap;html=1;strokeColor=#838A93;fillColor=none;strokeWidth=3;fontSize=37;" parent="1" vertex="1">
          <mxGeometry x="1695" y="1000" width="200" height="50" as="geometry" />
        </mxCell>
        <mxCell id="sV2P0FJGSlzIeBvPtXu7-203" value="&lt;span&gt;&lt;b&gt;助手配置&lt;/b&gt;&lt;/span&gt;" style="rounded=1;whiteSpace=wrap;html=1;strokeColor=#838A93;fillColor=none;strokeWidth=3;fontSize=37;" parent="1" vertex="1">
          <mxGeometry x="1690" y="860" width="200" height="50" as="geometry" />
        </mxCell>
        <mxCell id="sV2P0FJGSlzIeBvPtXu7-204" value="&lt;span&gt;&lt;b&gt;外呼摘要&lt;/b&gt;&lt;/span&gt;" style="rounded=1;whiteSpace=wrap;html=1;strokeColor=#838A93;fillColor=none;strokeWidth=3;fontSize=37;" parent="1" vertex="1">
          <mxGeometry x="1690" y="790" width="200" height="50" as="geometry" />
        </mxCell>
        <mxCell id="sV2P0FJGSlzIeBvPtXu7-206" value="" style="endArrow=classic;html=1;rounded=0;exitX=0.75;exitY=1;exitDx=0;exitDy=0;entryX=0.5;entryY=0;entryDx=0;entryDy=0;strokeWidth=3;strokeColor=#7A7A7A;fontSize=37;" parent="1" edge="1">
          <mxGeometry width="50" height="50" relative="1" as="geometry">
            <mxPoint x="2369.375" y="1340" as="sourcePoint" />
            <mxPoint x="2407.5" y="1360" as="targetPoint" />
          </mxGeometry>
        </mxCell>
        <mxCell id="sV2P0FJGSlzIeBvPtXu7-208" value="&lt;font&gt;MySQL&lt;/font&gt;" style="shape=datastore;whiteSpace=wrap;html=1;fontSize=37;" parent="1" vertex="1">
          <mxGeometry x="1800" y="1170" width="200" height="80" as="geometry" />
        </mxCell>
        <mxCell id="sV2P0FJGSlzIeBvPtXu7-209" value="&lt;font&gt;ES&lt;/font&gt;" style="shape=datastore;whiteSpace=wrap;html=1;fontSize=37;" parent="1" vertex="1">
          <mxGeometry x="1182.81" y="1170" width="198.75" height="80" as="geometry" />
        </mxCell>
        <mxCell id="sV2P0FJGSlzIeBvPtXu7-217" value="" style="group;sketch=1;curveFitting=1;jiggle=2;fontSize=37;" parent="1" vertex="1" connectable="0">
          <mxGeometry x="710" y="710" width="390" height="410" as="geometry" />
        </mxCell>
        <mxCell id="sV2P0FJGSlzIeBvPtXu7-218" value="" style="rounded=0;whiteSpace=wrap;html=1;dashed=1;fillColor=#F8EED1;strokeWidth=2;sketch=1;curveFitting=1;jiggle=2;fontSize=37;" parent="sV2P0FJGSlzIeBvPtXu7-217" vertex="1">
          <mxGeometry width="390" height="410" as="geometry" />
        </mxCell>
        <mxCell id="sV2P0FJGSlzIeBvPtXu7-219" value="&lt;font&gt;&lt;b&gt;知识点&lt;/b&gt;&lt;/font&gt;" style="text;html=1;align=center;verticalAlign=middle;whiteSpace=wrap;rounded=0;fontSize=37;" parent="sV2P0FJGSlzIeBvPtXu7-217" vertex="1">
          <mxGeometry x="116.44" y="18.57" width="113.78" height="27.86" as="geometry" />
        </mxCell>
        <mxCell id="sV2P0FJGSlzIeBvPtXu7-220" value="&lt;span&gt;&lt;b&gt;知识分类&lt;/b&gt;&lt;/span&gt;" style="rounded=0;whiteSpace=wrap;html=1;strokeColor=#838A93;fillColor=none;strokeWidth=3;fontSize=37;" parent="sV2P0FJGSlzIeBvPtXu7-217" vertex="1">
          <mxGeometry x="13" y="80" width="177" height="70" as="geometry" />
        </mxCell>
        <mxCell id="sV2P0FJGSlzIeBvPtXu7-221" value="&lt;span&gt;&lt;b&gt;话术推荐&lt;/b&gt;&lt;/span&gt;" style="rounded=0;whiteSpace=wrap;html=1;strokeColor=#838A93;fillColor=none;strokeWidth=3;fontSize=37;" parent="sV2P0FJGSlzIeBvPtXu7-217" vertex="1">
          <mxGeometry x="210" y="80" width="180" height="70" as="geometry" />
        </mxCell>
        <mxCell id="sV2P0FJGSlzIeBvPtXu7-222" value="&lt;span&gt;&lt;b&gt;知识解析&lt;/b&gt;&lt;/span&gt;" style="rounded=0;whiteSpace=wrap;html=1;strokeColor=#838A93;fillColor=none;strokeWidth=3;fontSize=37;" parent="sV2P0FJGSlzIeBvPtXu7-217" vertex="1">
          <mxGeometry x="13" y="200" width="187" height="70" as="geometry" />
        </mxCell>
        <mxCell id="sV2P0FJGSlzIeBvPtXu7-224" value="&lt;span&gt;&lt;b&gt;客户原声&lt;/b&gt;&lt;/span&gt;" style="rounded=0;whiteSpace=wrap;html=1;strokeColor=#838A93;fillColor=none;strokeWidth=3;fontSize=37;" parent="sV2P0FJGSlzIeBvPtXu7-217" vertex="1">
          <mxGeometry x="210" y="200" width="180" height="70" as="geometry" />
        </mxCell>
        <mxCell id="sV2P0FJGSlzIeBvPtXu7-231" value="&lt;font&gt;案例管理&lt;/font&gt;" style="text;html=1;align=center;verticalAlign=middle;whiteSpace=wrap;rounded=0;fontSize=37;" parent="1" vertex="1">
          <mxGeometry x="1794" y="730" width="190" height="40" as="geometry" />
        </mxCell>
        <mxCell id="sV2P0FJGSlzIeBvPtXu7-232" value="&lt;span&gt;&lt;b&gt;操作教学视频&lt;/b&gt;&lt;/span&gt;" style="rounded=1;whiteSpace=wrap;html=1;strokeColor=#838A93;fillColor=none;strokeWidth=3;fontSize=37;" parent="1" vertex="1">
          <mxGeometry x="1968" y="790" width="242" height="50" as="geometry" />
        </mxCell>
        <mxCell id="sV2P0FJGSlzIeBvPtXu7-233" value="&lt;span&gt;&lt;b&gt;情景说明&lt;/b&gt;&lt;/span&gt;" style="rounded=1;whiteSpace=wrap;html=1;strokeColor=#838A93;fillColor=none;strokeWidth=3;fontSize=37;" parent="1" vertex="1">
          <mxGeometry x="1968" y="860" width="200" height="50" as="geometry" />
        </mxCell>
        <mxCell id="sV2P0FJGSlzIeBvPtXu7-234" value="&lt;span&gt;&lt;b&gt;服务流程&lt;/b&gt;&lt;/span&gt;" style="rounded=1;whiteSpace=wrap;html=1;strokeColor=#838A93;fillColor=none;strokeWidth=3;fontSize=37;" parent="1" vertex="1">
          <mxGeometry x="1968" y="930" width="200" height="50" as="geometry" />
        </mxCell>
        <mxCell id="sV2P0FJGSlzIeBvPtXu7-235" value="" style="rounded=0;whiteSpace=wrap;html=1;strokeColor=#838A93;fillColor=none;strokeWidth=3;fontSize=37;" parent="1" vertex="1">
          <mxGeometry x="2320" y="775" width="370.5" height="330" as="geometry" />
        </mxCell>
        <mxCell id="sV2P0FJGSlzIeBvPtXu7-237" value="&lt;span&gt;案例库&lt;/span&gt;" style="text;html=1;align=center;verticalAlign=middle;whiteSpace=wrap;rounded=0;fontSize=37;" parent="1" vertex="1">
          <mxGeometry x="2455.25" y="730" width="164.75" height="40" as="geometry" />
        </mxCell>
        <mxCell id="sV2P0FJGSlzIeBvPtXu7-238" value="&lt;span&gt;&lt;b&gt;案例库管理&lt;/b&gt;&lt;/span&gt;" style="rounded=1;whiteSpace=wrap;html=1;strokeColor=#838A93;fillColor=none;strokeWidth=3;fontSize=37;" parent="1" vertex="1">
          <mxGeometry x="2390" y="790" width="200" height="50" as="geometry" />
        </mxCell>
        <mxCell id="sV2P0FJGSlzIeBvPtXu7-239" value="&lt;span&gt;&lt;b&gt;自由训练&lt;/b&gt;&lt;/span&gt;" style="rounded=1;whiteSpace=wrap;html=1;strokeColor=#838A93;fillColor=none;strokeWidth=3;fontSize=37;" parent="1" vertex="1">
          <mxGeometry x="2390" y="860" width="200" height="50" as="geometry" />
        </mxCell>
        <mxCell id="sV2P0FJGSlzIeBvPtXu7-240" value="&lt;span&gt;&lt;b&gt;机考训练&lt;/b&gt;&lt;/span&gt;" style="rounded=1;whiteSpace=wrap;html=1;strokeColor=#838A93;fillColor=none;strokeWidth=3;fontSize=37;" parent="1" vertex="1">
          <mxGeometry x="2390" y="930" width="200" height="50" as="geometry" />
        </mxCell>
        <mxCell id="sV2P0FJGSlzIeBvPtXu7-241" value="&lt;span&gt;&lt;b&gt;出舱配置&lt;/b&gt;&lt;/span&gt;" style="rounded=1;whiteSpace=wrap;html=1;strokeColor=#838A93;fillColor=none;strokeWidth=3;fontSize=37;" parent="1" vertex="1">
          <mxGeometry x="2390" y="1010" width="200" height="50" as="geometry" />
        </mxCell>
        <mxCell id="sV2P0FJGSlzIeBvPtXu7-242" value="" style="endArrow=classic;html=1;rounded=0;entryX=0.5;entryY=0;entryDx=0;entryDy=0;curved=1;fontSize=37;" parent="1" target="sV2P0FJGSlzIeBvPtXu7-218" edge="1">
          <mxGeometry width="50" height="50" relative="1" as="geometry">
            <mxPoint x="1520" y="650" as="sourcePoint" />
            <mxPoint x="740" y="1270" as="targetPoint" />
          </mxGeometry>
        </mxCell>
        <mxCell id="sV2P0FJGSlzIeBvPtXu7-246" value="&lt;font&gt;&lt;b&gt;外部依赖(智能测、通讯基建)&lt;/b&gt;&lt;/font&gt;" style="rounded=0;whiteSpace=wrap;html=1;fillColor=#e1d5e7;strokeColor=#9673a6;strokeWidth=3;sketch=1;curveFitting=1;jiggle=2;fontSize=37;" parent="1" vertex="1">
          <mxGeometry x="2150" y="-930" width="658" height="60" as="geometry" />
        </mxCell>
        <mxCell id="sV2P0FJGSlzIeBvPtXu7-247" value="" style="shape=doubleArrow;whiteSpace=wrap;html=1;fillColor=#bac8d3;strokeColor=#23445d;fontSize=37;" parent="1" vertex="1">
          <mxGeometry x="1940" y="-644" width="200" height="104" as="geometry" />
        </mxCell>
        <mxCell id="sV2P0FJGSlzIeBvPtXu7-248" value="" style="shape=doubleArrow;whiteSpace=wrap;html=1;fillColor=#bac8d3;strokeColor=#23445d;fontSize=37;" parent="1" vertex="1">
          <mxGeometry x="1940" y="-414" width="200" height="104" as="geometry" />
        </mxCell>
        <mxCell id="sV2P0FJGSlzIeBvPtXu7-249" value="RPC" style="text;html=1;align=center;verticalAlign=middle;whiteSpace=wrap;rounded=0;fontSize=37;" parent="1" vertex="1">
          <mxGeometry x="1978" y="-624.5" width="112" height="65" as="geometry" />
        </mxCell>
        <mxCell id="sV2P0FJGSlzIeBvPtXu7-250" value="Kafka(MQ)" style="text;html=1;align=center;verticalAlign=middle;whiteSpace=wrap;rounded=0;fontSize=37;" parent="1" vertex="1">
          <mxGeometry x="1984" y="-394.50000000000006" width="112" height="65" as="geometry" />
        </mxCell>
        <mxCell id="sV2P0FJGSlzIeBvPtXu7-257" value="&lt;font&gt;MySQL&lt;/font&gt;" style="shape=datastore;whiteSpace=wrap;html=1;fontSize=37;" parent="1" vertex="1">
          <mxGeometry x="820" y="1169" width="200" height="80" as="geometry" />
        </mxCell>
        <mxCell id="sV2P0FJGSlzIeBvPtXu7-258" value="&lt;font&gt;ES&lt;/font&gt;" style="shape=datastore;whiteSpace=wrap;html=1;fontSize=37;" parent="1" vertex="1">
          <mxGeometry x="2153.75" y="1169" width="198.75" height="80" as="geometry" />
        </mxCell>
        <mxCell id="sV2P0FJGSlzIeBvPtXu7-259" style="edgeStyle=orthogonalEdgeStyle;rounded=0;orthogonalLoop=1;jettySize=auto;html=1;exitX=0;exitY=1;exitDx=0;exitDy=0;entryX=0.161;entryY=0.684;entryDx=0;entryDy=0;entryPerimeter=0;fontSize=37;" parent="1" source="sV2P0FJGSlzIeBvPtXu7-26" target="sV2P0FJGSlzIeBvPtXu7-19" edge="1">
          <mxGeometry relative="1" as="geometry" />
        </mxCell>
        <mxCell id="sV2P0FJGSlzIeBvPtXu7-262" value="&lt;font&gt;&lt;b&gt;在线模拟训练&lt;/b&gt;&lt;/font&gt;" style="rounded=1;whiteSpace=wrap;html=1;strokeColor=#838A93;strokeWidth=3;fillColor=none;fontSize=37;" parent="1" vertex="1">
          <mxGeometry x="999.38" y="-680" width="240.62" height="110" as="geometry" />
        </mxCell>
        <mxCell id="sV2P0FJGSlzIeBvPtXu7-263" value="&lt;font&gt;&lt;b&gt;热线模拟训练&lt;/b&gt;&lt;/font&gt;" style="rounded=1;whiteSpace=wrap;html=1;strokeColor=#838A93;strokeWidth=3;fillColor=none;fontSize=37;" parent="1" vertex="1">
          <mxGeometry x="1261" y="-680" width="229" height="110" as="geometry" />
        </mxCell>
        <mxCell id="sV2P0FJGSlzIeBvPtXu7-270" value="&lt;span&gt;Redis&lt;/span&gt;" style="shape=datastore;whiteSpace=wrap;html=1;fontSize=37;" parent="1" vertex="1">
          <mxGeometry x="1491.25" y="1170" width="198.75" height="80" as="geometry" />
        </mxCell>
        <mxCell id="dlRur3L15nMgBuN5fwYe-1" value="讲师" style="shape=umlActor;verticalLabelPosition=bottom;verticalAlign=top;html=1;outlineConnect=0;fillColor=#e1d5e7;strokeColor=#9673a6;fontSize=37;" parent="1" vertex="1">
          <mxGeometry x="20" y="385" width="100" height="160" as="geometry" />
        </mxCell>
        <mxCell id="dlRur3L15nMgBuN5fwYe-2" value="学员" style="shape=umlActor;verticalLabelPosition=bottom;verticalAlign=top;html=1;outlineConnect=0;fillColor=#e1d5e7;strokeColor=#9673a6;fontSize=37;" parent="1" vertex="1">
          <mxGeometry x="30" y="-520" width="100" height="160" as="geometry" />
        </mxCell>
        <mxCell id="dlRur3L15nMgBuN5fwYe-4" value="" style="shape=doubleArrow;whiteSpace=wrap;html=1;fillColor=#bac8d3;strokeColor=#23445d;fontSize=37;" parent="1" vertex="1">
          <mxGeometry x="1540" y="-644" width="200" height="104" as="geometry" />
        </mxCell>
        <mxCell id="dlRur3L15nMgBuN5fwYe-5" value="" style="shape=doubleArrow;whiteSpace=wrap;html=1;fillColor=#bac8d3;strokeColor=#23445d;fontSize=37;" parent="1" vertex="1">
          <mxGeometry x="1540" y="-412.22" width="200" height="104" as="geometry" />
        </mxCell>
        <mxCell id="dlRur3L15nMgBuN5fwYe-6" value="RPC" style="text;html=1;align=center;verticalAlign=middle;whiteSpace=wrap;rounded=0;fontSize=37;" parent="1" vertex="1">
          <mxGeometry x="1584" y="-624.5" width="112" height="65" as="geometry" />
        </mxCell>
        <mxCell id="dlRur3L15nMgBuN5fwYe-7" value="Kafka(MQ)" style="text;html=1;align=center;verticalAlign=middle;whiteSpace=wrap;rounded=0;fontSize=37;" parent="1" vertex="1">
          <mxGeometry x="1584" y="-392.7200000000001" width="112" height="65" as="geometry" />
        </mxCell>
      </root>
    </mxGraphModel>
  </diagram>
</mxfile>
